<?xml version="1.0" encoding="UTF-8" standalone="no"?>
<!-- Created with Inkscape (http://www.inkscape.org/) -->

<svg
   xmlns:osb="http://www.openswatchbook.org/uri/2009/osb"
   xmlns:dc="http://purl.org/dc/elements/1.1/"
   xmlns:cc="http://creativecommons.org/ns#"
   xmlns:rdf="http://www.w3.org/1999/02/22-rdf-syntax-ns#"
   xmlns:svg="http://www.w3.org/2000/svg"
   xmlns="http://www.w3.org/2000/svg"
   xmlns:xlink="http://www.w3.org/1999/xlink"
   xmlns:sodipodi="http://sodipodi.sourceforge.net/DTD/sodipodi-0.dtd"
   xmlns:inkscape="http://www.inkscape.org/namespaces/inkscape"
   width="201.16934mm"
   height="138.10307mm"
   viewBox="0 0 712.80474 489.3416"
   id="svg2"
   version="1.1"
   inkscape:version="0.91 r13725"
   sodipodi:docname="siem_data_access_point.svg">
  <defs
     id="defs4">
    <linearGradient
       id="linearGradient8661"
       osb:paint="solid">
      <stop
         style="stop-color:#000000;stop-opacity:1;"
         offset="0"
         id="stop8663" />
    </linearGradient>
    <linearGradient
       id="linearGradient8655"
       osb:paint="solid">
      <stop
         style="stop-color:#000000;stop-opacity:1;"
         offset="0"
         id="stop8657" />
    </linearGradient>
    <linearGradient
       id="linearGradient8451"
       osb:paint="solid">
      <stop
         style="stop-color:#000000;stop-opacity:1;"
         offset="0"
         id="stop8453" />
    </linearGradient>
    <linearGradient
       id="linearGradient8421"
       osb:paint="solid">
      <stop
         style="stop-color:#dedfdc;stop-opacity:1;"
         offset="0"
         id="stop8423" />
    </linearGradient>
    <linearGradient
       id="linearGradient8404"
       osb:paint="solid">
      <stop
         style="stop-color:#555057;stop-opacity:1;"
         offset="0"
         id="stop8406" />
    </linearGradient>
    <linearGradient
       id="secondary"
       osb:paint="solid">
      <stop
         style="stop-color:#646464;stop-opacity:1;"
         offset="0"
         id="stop8400" />
    </linearGradient>
    <marker
       inkscape:stockid="Arrow2Mstart"
       orient="auto"
       refY="0"
       refX="0"
       id="Arrow2Mstart"
       style="overflow:visible"
       inkscape:isstock="true">
      <path
         id="path4869"
         style="fill:#000000;fill-opacity:1;fill-rule:evenodd;stroke:#000000;stroke-width:0.625;stroke-linejoin:round;stroke-opacity:1"
         d="M 8.7185878,4.0337352 -2.2072895,0.01601326 8.7185884,-4.0017078 c -1.7454984,2.3720609 -1.7354408,5.6174519 -6e-7,8.035443 z"
         transform="scale(0.6,0.6)"
         inkscape:connector-curvature="0" />
    </marker>
    <marker
       inkscape:stockid="Arrow1Mstart"
       orient="auto"
       refY="0"
       refX="0"
       id="Arrow1Mstart"
       style="overflow:visible"
       inkscape:isstock="true">
      <path
         id="path4851"
         d="M 0,0 5,-5 -12.5,0 5,5 0,0 Z"
         style="fill:#000000;fill-opacity:1;fill-rule:evenodd;stroke:#000000;stroke-width:1pt;stroke-opacity:1"
         transform="matrix(0.4,0,0,0.4,4,0)"
         inkscape:connector-curvature="0" />
    </marker>
    <marker
       inkscape:stockid="Arrow2Mend"
       orient="auto"
       refY="0"
       refX="0"
       id="Arrow2Mend"
       style="overflow:visible"
       inkscape:isstock="true">
      <path
         id="path4872"
         style="fill:#000000;fill-opacity:1;fill-rule:evenodd;stroke:#000000;stroke-width:0.625;stroke-linejoin:round;stroke-opacity:1"
         d="M 8.7185878,4.0337352 -2.2072895,0.01601326 8.7185884,-4.0017078 c -1.7454984,2.3720609 -1.7354408,5.6174519 -6e-7,8.035443 z"
         transform="scale(-0.6,-0.6)"
         inkscape:connector-curvature="0" />
    </marker>
    <marker
       inkscape:stockid="Arrow2Lend"
       orient="auto"
       refY="0"
       refX="0"
       id="Arrow2Lend"
       style="overflow:visible"
       inkscape:isstock="true">
      <path
         id="path4866"
         style="fill:#000000;fill-opacity:1;fill-rule:evenodd;stroke:#000000;stroke-width:0.625;stroke-linejoin:round;stroke-opacity:1"
         d="M 8.7185878,4.0337352 -2.2072895,0.01601326 8.7185884,-4.0017078 c -1.7454984,2.3720609 -1.7354408,5.6174519 -6e-7,8.035443 z"
         transform="matrix(-1.1,0,0,-1.1,-1.1,0)"
         inkscape:connector-curvature="0" />
    </marker>
    <marker
       inkscape:stockid="Arrow2Lstart"
       orient="auto"
       refY="0"
       refX="0"
       id="Arrow2Lstart"
       style="overflow:visible"
       inkscape:isstock="true">
      <path
         id="path4863"
         style="fill-rule:evenodd;stroke-width:0.625;stroke-linejoin:round"
         d="M 8.7185878,4.0337352 -2.2072895,0.01601326 8.7185884,-4.0017078 c -1.7454984,2.3720609 -1.7354408,5.6174519 -6e-7,8.035443 z"
         transform="matrix(1.1,0,0,1.1,1.1,0)"
         inkscape:connector-curvature="0" />
    </marker>
    <linearGradient
       id="svs_hellgrau"
       osb:paint="solid">
      <stop
         style="stop-color:#bfbfbf;stop-opacity:1;"
         offset="0"
         id="stop5857" />
    </linearGradient>
    <linearGradient
       inkscape:collect="always"
       xlink:href="#svs_hellgrau_stroke"
       id="linearGradient6043"
       gradientUnits="userSpaceOnUse"
       x1="-328.56592"
       y1="290.1109"
       x2="-178.54568"
       y2="290.1109"
       gradientTransform="matrix(0.52412731,0,0,0.43652077,185.29488,102.85418)" />
    <linearGradient
       id="svs_hellgrau_stroke"
       osb:paint="solid">
      <stop
         style="stop-color:#000000;stop-opacity:1;"
         offset="0"
         id="stop6026" />
    </linearGradient>
    <linearGradient
       inkscape:collect="always"
       xlink:href="#svs_hellgrau_stroke"
       id="linearGradient6043-0"
       gradientUnits="userSpaceOnUse"
       x1="-328.56592"
       y1="290.1109"
       x2="-178.54568"
       y2="290.1109"
       gradientTransform="matrix(0.52149607,0,0,0.43729823,766.61812,120.83872)" />
    <linearGradient
       inkscape:collect="always"
       xlink:href="#svs_hellgrau"
       id="linearGradient5559"
       gradientUnits="userSpaceOnUse"
       gradientTransform="matrix(0.43063071,0,0,0.43063071,502.38435,11.166556)"
       x1="963.54047"
       y1="40.511536"
       x2="1204.1459"
       y2="40.511536" />
    <linearGradient
       inkscape:collect="always"
       xlink:href="#svs_hellgrau"
       id="linearGradient4391"
       gradientUnits="userSpaceOnUse"
       gradientTransform="matrix(0.43063071,0,0,0.43063071,502.38435,11.166556)"
       x1="963.54047"
       y1="40.511536"
       x2="1204.1459"
       y2="40.511536" />
    <marker
       inkscape:stockid="Arrow2Mend"
       orient="auto"
       refY="0"
       refX="0"
       id="Arrow2Mend-4"
       style="overflow:visible"
       inkscape:isstock="true">
      <path
         inkscape:connector-curvature="0"
         id="path4872-0"
         style="fill:#000000;fill-opacity:1;fill-rule:evenodd;stroke:#000000;stroke-width:0.625;stroke-linejoin:round;stroke-opacity:1"
         d="M 8.7185878,4.0337352 -2.2072895,0.01601326 8.7185884,-4.0017078 c -1.7454984,2.3720609 -1.7354408,5.6174519 -6e-7,8.035443 z"
         transform="scale(-0.6,-0.6)" />
    </marker>
    <marker
       inkscape:stockid="Arrow2Mstart"
       orient="auto"
       refY="0"
       refX="0"
       id="Arrow2Mstart-9"
       style="overflow:visible"
       inkscape:isstock="true">
      <path
         inkscape:connector-curvature="0"
         id="path4869-9"
         style="fill:#646464;fill-opacity:1;fill-rule:evenodd;stroke:#646464;stroke-width:0.625;stroke-linejoin:round;stroke-opacity:1"
         d="M 8.7185878,4.0337352 -2.2072895,0.01601326 8.7185884,-4.0017078 c -1.7454984,2.3720609 -1.7354408,5.6174519 -6e-7,8.035443 z"
         transform="scale(0.6,0.6)" />
    </marker>
    <marker
       inkscape:stockid="Arrow2Mend"
       orient="auto"
       refY="0"
       refX="0"
       id="Arrow2Mend-4-7"
       style="overflow:visible"
       inkscape:isstock="true">
      <path
         inkscape:connector-curvature="0"
         id="path4872-0-1"
         style="fill:#646464;fill-opacity:1;fill-rule:evenodd;stroke:#646464;stroke-width:0.625;stroke-linejoin:round;stroke-opacity:1"
         d="M 8.7185878,4.0337352 -2.2072895,0.01601326 8.7185884,-4.0017078 c -1.7454984,2.3720609 -1.7354408,5.6174519 -6e-7,8.035443 z"
         transform="scale(-0.6,-0.6)" />
    </marker>
    <linearGradient
       inkscape:collect="always"
       xlink:href="#svs_rot"
       id="linearGradient6217"
       x1="-209.07143"
       y1="523.79077"
       x2="-93.785713"
       y2="523.79077"
       gradientUnits="userSpaceOnUse"
       gradientTransform="translate(-264.06631,-408.52372)" />
    <linearGradient
       id="svs_rot"
       osb:paint="solid">
      <stop
         style="stop-color:#ff0000;stop-opacity:1;"
         offset="0"
         id="stop6215" />
    </linearGradient>
    <linearGradient
       inkscape:collect="always"
       xlink:href="#svs_rot"
       id="linearGradient4428"
       gradientUnits="userSpaceOnUse"
       gradientTransform="translate(-312.51622,-286.74423)"
       x1="-209.07143"
       y1="523.79077"
       x2="-93.785713"
       y2="523.79077" />
    <linearGradient
       inkscape:collect="always"
       xlink:href="#svs_rot"
       id="linearGradient4445"
       gradientUnits="userSpaceOnUse"
       gradientTransform="translate(-45.38699,-192.46332)"
       x1="-209.07143"
       y1="523.79077"
       x2="-93.785713"
       y2="523.79077" />
  </defs>
  <sodipodi:namedview
     id="base"
     pagecolor="#ffffff"
     bordercolor="#666666"
     borderopacity="1.0"
     inkscape:pageopacity="0.0"
     inkscape:pageshadow="2"
     inkscape:zoom="0.76367532"
     inkscape:cx="598.03605"
     inkscape:cy="164.8513"
     inkscape:document-units="px"
     inkscape:current-layer="layer1"
     showgrid="false"
     inkscape:window-width="1920"
     inkscape:window-height="1138"
     inkscape:window-x="-8"
     inkscape:window-y="-8"
     inkscape:window-maximized="1"
     units="mm"
     fit-margin-top="0"
     fit-margin-left="0"
     fit-margin-right="0"
     fit-margin-bottom="0" />
  <metadata
     id="metadata7">
    <rdf:RDF>
      <cc:Work
         rdf:about="">
        <dc:format>image/svg+xml</dc:format>
        <dc:type
           rdf:resource="http://purl.org/dc/dcmitype/StillImage" />
        <dc:title></dc:title>
      </cc:Work>
    </rdf:RDF>
  </metadata>
  <g
     inkscape:label="Layer 1"
     inkscape:groupmode="layer"
     id="layer1"
     transform="translate(21.348324,-39.47322)">
    <g
       id="g4208"
       transform="translate(204.52445,-157.72046)">
      <rect
         y="27.158501"
         x="51.129631"
         height="77.777779"
         width="106.48148"
         id="rect4136"
         style="opacity:1;fill:#ffffff;fill-opacity:1;stroke:#000000;stroke-width:2;stroke-linecap:round;stroke-linejoin:miter;stroke-miterlimit:4;stroke-dasharray:none;stroke-dashoffset:0;stroke-opacity:1" />
      <rect
         y="37.158455"
         x="41.129646"
         height="77.777779"
         width="106.48148"
         id="rect4136-2"
         style="opacity:1;fill:#ffffff;fill-opacity:1;stroke:#000000;stroke-width:2;stroke-linecap:round;stroke-linejoin:miter;stroke-miterlimit:4;stroke-dasharray:none;stroke-dashoffset:0;stroke-opacity:1" />
      <rect
         y="47.158501"
         x="31.129629"
         height="77.777779"
         width="106.48148"
         id="rect4136-28"
         style="opacity:1;fill:#ffffff;fill-opacity:1;stroke:#000000;stroke-width:2;stroke-linecap:round;stroke-linejoin:miter;stroke-miterlimit:4;stroke-dasharray:none;stroke-dashoffset:0;stroke-opacity:1" />
    </g>
    <path
       id="path4223"
       style="fill:#dedfdc;fill-opacity:1;fill-rule:evenodd;stroke:#555057;stroke-width:2;stroke-linecap:butt;stroke-linejoin:miter;stroke-miterlimit:4;stroke-dasharray:none;stroke-opacity:1"
       d="m 270.37048,178.76962 51.82692,0 m -51.82692,-20.06174 51.82692,0 m -51.82692,-20.06175 51.82692,0 m -51.82692,-20.06169 51.82692,0 m -61.5616,-17.5926 71.29629,0 0,95.37037 -71.29629,0 z"
       inkscape:connector-curvature="0" />
    <path
       inkscape:connector-curvature="0"
       style="fill:none;fill-opacity:1;stroke:url(#linearGradient6043);stroke-width:2;stroke-linecap:square;stroke-linejoin:miter;stroke-miterlimit:4;stroke-dasharray:none;stroke-dashoffset:0;stroke-opacity:1"
       d="m 52.403138,180.49392 a 39.04885,16.152405 0 0 0 -39.049003,16.1518 39.04885,16.152405 0 0 0 39.049003,16.15252 39.04885,16.152405 0 0 0 39.04899,-16.15252 39.04885,16.152405 0 0 0 -39.04899,-16.1518 z m -39.056797,23.54172 0,14.45939 0.04322,0 a 39.02217,16.152478 0 0 0 -0.01625,0.19467 39.02217,16.152478 0 0 0 39.02209,16.1518 39.02217,16.152478 0 0 0 39.021379,-16.1518 39.02217,16.152478 0 0 0 -0.02337,-0.19467 l 0.05027,0 0,-14.36277 A 39.309549,16.369529 0 0 1 52.395391,218.6897 39.309549,16.369529 0 0 1 13.346395,204.03564 Z m 0,21.82585 0,14.45939 0.04322,0 a 39.02217,16.152478 0 0 0 -0.01625,0.19468 39.02217,16.152478 0 0 0 39.02209,16.1518 39.02217,16.152478 0 0 0 39.021379,-16.1518 39.02217,16.152478 0 0 0 -0.02337,-0.19468 l 0.05027,0 0,-14.36205 A 39.309549,16.369529 0 0 1 52.395391,240.51556 39.309549,16.369529 0 0 1 13.346395,225.86149 Z m 0,21.82585 0,14.46011 0.04322,0 a 39.02217,16.152478 0 0 0 -0.01625,0.19396 39.02217,16.152478 0 0 0 39.02209,16.15251 39.02217,16.152478 0 0 0 39.021379,-16.15251 39.02217,16.152478 0 0 0 -0.02337,-0.19396 l 0.05027,0 0,-14.36277 A 39.309549,16.369529 0 0 1 52.395391,262.34141 39.309549,16.369529 0 0 1 13.346395,247.68734 Z"
       id="path4207-9-9-8-5" />
    <path
       style="opacity:1;fill:none;fill-opacity:1;stroke:#000000;stroke-width:1.99999988;stroke-linecap:round;stroke-linejoin:miter;stroke-miterlimit:4;stroke-dasharray:none;stroke-dashoffset:0;stroke-opacity:1"
       d="m 20.247129,40.47322 0,98.00001 64.304212,0 0,-98.00001 -64.304212,0 z m 9.060898,10.562508 46.182422,0 0,6.455354 -46.182422,0 0,-6.455354 z m 0.29224,14.23024 45.597935,0 0,6.455346 -45.597935,0 0,-6.455346 z m 0,14.231473 45.597935,0 0,6.454122 -45.597935,0 0,-6.454122 z m 22.798971,36.089309 a 4.6766834,4.6946329 0 0 1 4.675944,4.69514 4.6766834,4.6946329 0 0 1 -4.675944,4.6939 4.6766834,4.6946329 0 0 1 -4.677185,-4.6939 4.6766834,4.6946329 0 0 1 4.677185,-4.69514 z"
       id="rect4276"
       inkscape:connector-curvature="0" />
    <path
       id="rect4332"
       style="opacity:1;fill:none;fill-opacity:1;stroke:#000000;stroke-width:1.99999988;stroke-linecap:round;stroke-linejoin:miter;stroke-miterlimit:4;stroke-dasharray:none;stroke-dashoffset:0;stroke-opacity:1"
       d="m 44.876204,365.66888 0,3.61205 a 16.300156,2.7362236 0 0 0 -8.777221,2.42569 16.300156,2.7362236 0 0 0 16.300255,2.73632 16.300156,2.7362236 0 0 0 16.300252,-2.73632 16.300156,2.7362236 0 0 0 -8.777221,-2.42464 l 0,-3.6131 -15.046065,0 z m -31.476969,-45.15428 0,45.13276 78,0 0,-45.13276 -78,0 z m 4.062497,4.02971 69.875005,0 0,37.07335 -69.875005,0 0,-37.07335 z m 34.937506,38.00522 a 1.1284723,1.1193642 0 0 1 1.128292,1.11918 1.1284723,1.1193642 0 0 1 -1.128292,1.11972 1.1284723,1.1193642 0 0 1 -1.128826,-1.11972 1.1284723,1.1193642 0 0 1 1.128826,-1.11918 z"
       inkscape:connector-curvature="0" />
    <text
       xml:space="preserve"
       style="font-style:normal;font-weight:normal;font-size:30px;line-height:125%;font-family:sans-serif;text-align:center;letter-spacing:0px;word-spacing:0px;text-anchor:middle;fill:#000000;fill-opacity:1;stroke:none;stroke-width:1px;stroke-linecap:butt;stroke-linejoin:miter;stroke-opacity:1"
       x="52.069645"
       y="485.27966"
       id="text4805"
       sodipodi:linespacing="125%"><tspan
         sodipodi:role="line"
         x="52.069645"
         y="485.27966"
         id="tspan4811">Logdaten-</tspan><tspan
         sodipodi:role="line"
         x="52.069645"
         y="522.77966"
         id="tspan4809">quellen</tspan></text>
    <text
       xml:space="preserve"
       style="font-style:normal;font-weight:normal;font-size:40px;line-height:125%;font-family:sans-serif;letter-spacing:0px;word-spacing:0px;fill:#000000;fill-opacity:1;stroke:none;stroke-width:1px;stroke-linecap:butt;stroke-linejoin:miter;stroke-opacity:1"
       x="30.592594"
       y="421.03006"
       id="text4815"
       sodipodi:linespacing="125%"><tspan
         sodipodi:role="line"
         id="tspan4817"
         x="30.592594"
         y="421.03006">...</tspan></text>
    <path
       style="fill:none;fill-rule:evenodd;stroke:#000000;stroke-width:2;stroke-linecap:butt;stroke-linejoin:miter;stroke-miterlimit:4;stroke-dasharray:none;stroke-opacity:1"
       d="m 118.51852,91.251094 79.62963,0 0,259.259256 -72.22222,0"
       id="path4829"
       inkscape:connector-curvature="0" />
    <path
       style="fill:none;fill-rule:evenodd;stroke:#000000;stroke-width:2;stroke-linecap:butt;stroke-linejoin:miter;stroke-miterlimit:4;stroke-dasharray:none;stroke-opacity:1;marker-end:url(#Arrow2Mend)"
       d="m 118.51852,220.88072 255.55555,0"
       id="path4831"
       inkscape:connector-curvature="0" />
    <text
       xml:space="preserve"
       style="font-style:normal;font-weight:normal;font-size:30px;line-height:125%;font-family:sans-serif;text-align:center;letter-spacing:0px;word-spacing:0px;text-anchor:middle;fill:#000000;fill-opacity:1;stroke:none;stroke-width:1px;stroke-linecap:butt;stroke-linejoin:miter;stroke-opacity:1"
       x="295.30615"
       y="260.44092"
       id="text7238"
       sodipodi:linespacing="125%"><tspan
         sodipodi:role="line"
         id="tspan7240"
         x="299.26123"
         y="260.44092"
         style="font-size:22.5px">Ungeparste </tspan><tspan
         sodipodi:role="line"
         x="295.30615"
         y="288.56592"
         id="tspan7242"
         style="font-size:22.5px">Logdaten</tspan></text>
    <g
       id="g4521"
       transform="matrix(0.36863497,0,0,0.36863497,205.56518,376.47335)">
      <circle
         r="57.142857"
         cy="115.26705"
         cx="-415.49487"
         id="path5853"
         style="fill:url(#linearGradient6217);fill-opacity:1;stroke:none;stroke-width:1;stroke-linecap:round;stroke-linejoin:miter;stroke-miterlimit:4;stroke-dasharray:none;stroke-dashoffset:0;stroke-opacity:1" />
      <text
         sodipodi:linespacing="125%"
         id="text6219"
         y="144.44675"
         x="-442.09644"
         style="font-style:normal;font-weight:normal;font-size:40px;line-height:125%;font-family:sans-serif;letter-spacing:0px;word-spacing:0px;fill:#ffffff;fill-opacity:1;stroke:none;stroke-width:1px;stroke-linecap:butt;stroke-linejoin:miter;stroke-opacity:1"
         xml:space="preserve"><tspan
           style="font-size:80px"
           y="144.44675"
           x="-442.09644"
           id="tspan6221"
           sodipodi:role="line">1</tspan></text>
    </g>
    <g
       id="g4545"
       transform="matrix(0.36863497,0,0,0.36863497,467.31022,133.47786)">
      <circle
         r="57.142857"
         cy="237.04654"
         cx="-463.94479"
         id="path5853-4"
         style="fill:url(#linearGradient4428);fill-opacity:1;stroke:none;stroke-width:1;stroke-linecap:round;stroke-linejoin:miter;stroke-miterlimit:4;stroke-dasharray:none;stroke-dashoffset:0;stroke-opacity:1" />
      <g
         id="g4541">
        <text
           xml:space="preserve"
           style="font-style:normal;font-weight:normal;font-size:40px;line-height:125%;font-family:sans-serif;letter-spacing:0px;word-spacing:0px;fill:#ffffff;fill-opacity:1;stroke:none;stroke-width:1px;stroke-linecap:butt;stroke-linejoin:miter;stroke-opacity:1"
           x="-490.54636"
           y="266.22623"
           id="text6219-8"
           sodipodi:linespacing="125%"><tspan
             sodipodi:role="line"
             id="tspan6221-7"
             x="-490.54636"
             y="266.22623"
             style="font-size:80px">2</tspan></text>
      </g>
    </g>
    <g
       id="g4353"
       transform="translate(0,3.9283747)">
      <rect
         y="123.6367"
         x="402.02612"
         height="186.59285"
         width="288.43033"
         id="rect4136-28-3-3"
         style="opacity:1;fill:#ffffff;fill-opacity:1;stroke:#000000;stroke-width:1.99999988;stroke-linecap:round;stroke-linejoin:miter;stroke-miterlimit:4;stroke-dasharray:none;stroke-dashoffset:0;stroke-opacity:1" />
      <text
         sodipodi:linespacing="125%"
         id="text4623-9"
         y="175.84555"
         x="444.60309"
         style="font-style:normal;font-weight:normal;font-size:40px;line-height:125%;font-family:sans-serif;letter-spacing:0px;word-spacing:0px;fill:#000000;fill-opacity:1;stroke:none;stroke-width:1px;stroke-linecap:butt;stroke-linejoin:miter;stroke-opacity:1"
         xml:space="preserve"><tspan
           style="font-size:30px"
           id="tspan4627-7"
           y="175.84555"
           x="444.60309"
           sodipodi:role="line">SIEM-System</tspan></text>
      <path
         id="path4207-9-9-8-5-4"
         d="m 634.39342,198.61672 a 38.852817,16.181173 0 0 0 -38.8529,16.18056 38.852817,16.181173 0 0 0 38.8529,16.18128 38.852817,16.181173 0 0 0 38.853,-16.18128 38.852817,16.181173 0 0 0 -38.853,-16.18056 z m -38.8607,23.58364 0,14.48514 0.043,0 a 38.826271,16.181246 0 0 0 -0.018,0.19507 38.826271,16.181246 0 0 0 38.8263,16.18057 38.826271,16.181246 0 0 0 38.8255,-16.18057 38.826271,16.181246 0 0 0 -0.025,-0.19507 l 0.05,0 0,-14.38834 a 39.112206,16.398683 0 0 1 -38.8523,14.58338 39.112206,16.398683 0 0 1 -38.8529,-14.68018 z m 0,21.86474 0,14.48514 0.043,0 a 38.826271,16.181246 0 0 0 -0.018,0.19508 38.826271,16.181246 0 0 0 38.8263,16.18057 38.826271,16.181246 0 0 0 38.8255,-16.18057 38.826271,16.181246 0 0 0 -0.025,-0.19508 l 0.05,0 0,-14.38764 a 39.112206,16.398683 0 0 1 -38.8523,14.58265 39.112206,16.398683 0 0 1 -38.853,-14.68015 z m 0,21.86471 0,14.48585 0.043,0 a 38.826271,16.181246 0 0 0 -0.018,0.19436 38.826271,16.181246 0 0 0 38.8263,16.18131 38.826271,16.181246 0 0 0 38.8255,-16.18131 38.826271,16.181246 0 0 0 -0.025,-0.19436 l 0.05,0 0,-14.38832 a 39.112206,16.398683 0 0 1 -38.8523,14.58264 39.112206,16.398683 0 0 1 -38.853,-14.68017 z"
         style="fill:none;fill-opacity:1;stroke:url(#linearGradient6043-0);stroke-width:2;stroke-linecap:square;stroke-linejoin:miter;stroke-miterlimit:4;stroke-dasharray:none;stroke-dashoffset:0;stroke-opacity:1"
         inkscape:connector-curvature="0" />
      <g
         transform="translate(-700.25457,-57.011423)"
         id="g5233">
        <rect
           style="opacity:1;fill:none;fill-opacity:1;fill-rule:nonzero;stroke:#000000;stroke-width:1.99999988;stroke-linecap:square;stroke-linejoin:miter;stroke-miterlimit:4;stroke-dasharray:none;stroke-dashoffset:0;stroke-opacity:1"
           id="rect4670-9"
           width="127.00137"
           height="85.037041"
           x="1116.045"
           y="268.76572" />
        <text
           xml:space="preserve"
           style="font-style:normal;font-weight:normal;font-size:40px;line-height:125%;font-family:sans-serif;text-align:center;letter-spacing:0px;word-spacing:0px;text-anchor:middle;fill:#000000;fill-opacity:1;stroke:none;stroke-width:1px;stroke-linecap:butt;stroke-linejoin:miter;stroke-opacity:1"
           x="1180.183"
           y="302.56891"
           id="text4672-1"
           sodipodi:linespacing="125%"><tspan
             style="font-size:30px"
             sodipodi:role="line"
             x="1180.183"
             y="302.56891"
             id="tspan4676-5">Parser</tspan></text>
      </g>
      <g
         transform="matrix(0.36863497,0,0,0.36863497,551.84422,150.46633)"
         id="g4531">
        <circle
           style="fill:url(#linearGradient4445);fill-opacity:1;stroke:none;stroke-width:1;stroke-linecap:round;stroke-linejoin:miter;stroke-miterlimit:4;stroke-dasharray:none;stroke-dashoffset:0;stroke-opacity:1"
           id="path5853-9"
           cx="-196.81557"
           cy="331.32745"
           r="57.142857" />
        <text
           xml:space="preserve"
           style="font-style:normal;font-weight:normal;font-size:40px;line-height:125%;font-family:sans-serif;letter-spacing:0px;word-spacing:0px;fill:#ffffff;fill-opacity:1;stroke:none;stroke-width:1px;stroke-linecap:butt;stroke-linejoin:miter;stroke-opacity:1"
           x="-223.41713"
           y="360.50714"
           id="text6219-84"
           sodipodi:linespacing="125%"><tspan
             sodipodi:role="line"
             id="tspan6221-12"
             x="-223.41713"
             y="360.50714"
             style="font-size:80px">3</tspan></text>
      </g>
    </g>
  </g>
</svg>
