<?xml version="1.0" encoding="iso-8859-1"?>
<!-- Generator: Adobe Illustrator 19.0.0, SVG Export Plug-In . SVG Version: 6.00 Build 0)  -->
<svg version="1.1" id="Layer_1" xmlns="http://www.w3.org/2000/svg" xmlns:xlink="http://www.w3.org/1999/xlink" x="0px" y="0px"
	 viewBox="0 0 299.881 299.881" style="enable-background:new 0 0 299.881 299.881;" xml:space="preserve">
<g>
	<g>
		<path d="M297.949,207.273l-15.184-15.184V121.17c0-2.114-1.039-4.214-2.925-5.482L145.067,24.926
			c-2.229-1.501-5.144-1.501-7.374,0L2.91,115.695c-3.88,2.613-3.881,8.334,0,10.948l44.684,30.092v54.029
			c0,2.196,1.092,4.248,2.914,5.474l87.186,58.715c2.228,1.5,5.144,1.501,7.374,0l87.186-58.715
			c1.821-1.226,2.913-3.279,2.913-5.474v-54.029l34.397-23.165v58.517l-15.184,15.184c-2.576,2.574-2.578,6.757-0.001,9.333
			l17.118,17.118c2.577,2.576,6.756,2.578,9.334,0l17.117-17.118C300.525,214.029,300.525,209.85,297.949,207.273z M221.967,207.253
			l-80.586,54.27l-80.586-54.27v-41.628l76.9,51.788c1.95,1.314,4.426,1.478,6.508,0.493c0.297-0.141,0.587-0.305,0.865-0.493
			l76.9-51.788V207.253z M224.881,147.75l-83.5,56.233l-83.5-56.233l-39.468-26.58l122.968-82.813l122.968,82.813L224.881,147.75z
			 M276.164,219.724l-7.784-7.784l7.784-7.784l7.784,7.784L276.164,219.724z"/>
	</g>
</g>
<g>
</g>
<g>
</g>
<g>
</g>
<g>
</g>
<g>
</g>
<g>
</g>
<g>
</g>
<g>
</g>
<g>
</g>
<g>
</g>
<g>
</g>
<g>
</g>
<g>
</g>
<g>
</g>
<g>
</g>
</svg>
