<?xml version="1.0" encoding="UTF-8" standalone="no"?>
<!-- Generator: Adobe Illustrator 16.0.0, SVG Export Plug-In . SVG Version: 6.00 Build 0)  -->

<svg
   xmlns:dc="http://purl.org/dc/elements/1.1/"
   xmlns:cc="http://creativecommons.org/ns#"
   xmlns:rdf="http://www.w3.org/1999/02/22-rdf-syntax-ns#"
   xmlns:svg="http://www.w3.org/2000/svg"
   xmlns="http://www.w3.org/2000/svg"
   xmlns:sodipodi="http://sodipodi.sourceforge.net/DTD/sodipodi-0.dtd"
   xmlns:inkscape="http://www.inkscape.org/namespaces/inkscape"
   version="1.1"
   id="Capa_1"
   x="0px"
   y="0px"
   width="83.43px"
   height="83.43px"
   viewBox="0 0 83.43 83.43"
   style="enable-background:new 0 0 83.43 83.43;"
   xml:space="preserve"
   inkscape:version="0.91 r13725"
   sodipodi:docname="eye.svg"><metadata
     id="metadata41"><rdf:RDF><cc:Work
         rdf:about=""><dc:format>image/svg+xml</dc:format><dc:type
           rdf:resource="http://purl.org/dc/dcmitype/StillImage" /></cc:Work></rdf:RDF></metadata><defs
     id="defs39" /><sodipodi:namedview
     pagecolor="#ffffff"
     bordercolor="#666666"
     borderopacity="1"
     objecttolerance="10"
     gridtolerance="10"
     guidetolerance="10"
     inkscape:pageopacity="0"
     inkscape:pageshadow="2"
     inkscape:window-width="1278"
     inkscape:window-height="784"
     id="namedview37"
     showgrid="false"
     inkscape:zoom="2.8287187"
     inkscape:cx="34.291144"
     inkscape:cy="41.715"
     inkscape:window-x="0"
     inkscape:window-y="0"
     inkscape:window-maximized="0"
     inkscape:current-layer="Capa_1" /><g
     id="g3"><path
       d="M82.316,39.792C73.947,25.331,58.39,16.348,41.715,16.348c-16.676,0-32.232,8.982-40.603,23.444L0,41.715l1.113,1.924   c8.369,14.46,23.926,23.443,40.602,23.443c16.675,0,32.232-8.982,40.602-23.443l1.113-1.924L82.316,39.792z M42.132,55.354   c-8.206,0-14.883-6.676-14.883-14.883c0-8.206,6.677-14.883,14.883-14.883s14.883,6.677,14.883,14.883   C57.015,48.678,50.338,55.354,42.132,55.354z M8.95,41.715c3.54-5.372,8.314-9.717,13.812-12.76   c-2.016,3.377-3.196,7.307-3.196,11.516c0,6.01,2.375,11.458,6.216,15.508C19.014,52.951,13.123,48.048,8.95,41.715z    M59.113,55.281c3.465-3.967,5.582-9.141,5.582-14.811c0-3.898-0.992-7.566-2.739-10.768c4.956,2.992,9.265,7.065,12.522,12.012   C70.611,47.584,65.265,52.225,59.113,55.281z M47.988,40.179c0,3.464-2.81,6.272-6.272,6.272c-3.465,0-6.273-2.809-6.273-6.272   c0-3.465,2.809-6.273,6.273-6.273C45.179,33.906,47.988,36.714,47.988,40.179z"
       id="path5" /></g><g
     id="g7" /><g
     id="g9" /><g
     id="g11" /><g
     id="g13" /><g
     id="g15" /><g
     id="g17" /><g
     id="g19" /><g
     id="g21" /><g
     id="g23" /><g
     id="g25" /><g
     id="g27" /><g
     id="g29" /><g
     id="g31" /><g
     id="g33" /><g
     id="g35" /><rect
     style="opacity:1;fill:#ffffff;fill-opacity:1;stroke:none;stroke-width:2;stroke-linecap:round;stroke-linejoin:round;stroke-miterlimit:4;stroke-dasharray:none;stroke-dashoffset:0;stroke-opacity:1"
     id="rect4169-5"
     width="7.7773728"
     height="84.84407"
     x="54.684006"
     y="-43.671906"
     ry="3.8886864"
     transform="matrix(0.70710678,0.70710678,-0.70710678,0.70710678,0,0)" /><rect
     style="opacity:1;fill:#000000;fill-opacity:1;stroke:none;stroke-width:2;stroke-linecap:round;stroke-linejoin:round;stroke-miterlimit:4;stroke-dasharray:none;stroke-dashoffset:0;stroke-opacity:1"
     id="rect4169"
     width="7.7773728"
     height="84.84407"
     x="53.105438"
     y="-43.421932"
     ry="3.8886864"
     transform="matrix(0.70710678,0.70710678,-0.70710678,0.70710678,0,0)" /></svg>