<?xml version="1.0" encoding="iso-8859-1"?>
<!-- Generator: Adobe Illustrator 18.0.0, SVG Export Plug-In . SVG Version: 6.00 Build 0)  -->
<!DOCTYPE svg PUBLIC "-//W3C//DTD SVG 1.1//EN" "http://www.w3.org/Graphics/SVG/1.1/DTD/svg11.dtd">
<svg version="1.1" id="Capa_1" xmlns="http://www.w3.org/2000/svg" xmlns:xlink="http://www.w3.org/1999/xlink" x="0px" y="0px"
	 viewBox="0 0 297 297" style="enable-background:new 0 0 297 297;" xml:space="preserve">
<g>
	<path d="M181.115,252.771h-22.731V76.845h57.057l-19.569,48.923h21.29l19.569-48.923h2.925l19.569,48.923h21.29l-19.569-48.923
		h1.71c5.458,0,9.883-4.426,9.883-9.884s-4.425-9.884-9.883-9.884H158.384V34.346c0-5.459-4.426-9.884-9.884-9.884
		s-9.884,4.425-9.884,9.884v22.731H34.345c-5.458,0-9.883,4.426-9.883,9.884s4.425,9.884,9.883,9.884h1.71l-19.569,48.923h21.29
		l19.569-48.923h2.925l19.569,48.923h21.29L81.56,76.845h57.057v175.927h-22.731c-5.458,0-9.884,4.425-9.884,9.883
		c0,5.459,4.426,9.884,9.884,9.884h65.23c5.458,0,9.884-4.425,9.884-9.884C190.999,257.196,186.573,252.771,181.115,252.771z"/>
	<path d="M107.73,138.616H9.884C4.426,138.616,0,143.042,0,148.5c0,32.427,26.381,58.807,58.807,58.807
		c32.427,0,58.808-26.38,58.808-58.807C117.614,143.042,113.188,138.616,107.73,138.616z"/>
	<path d="M287.116,138.616H189.27c-5.458,0-9.884,4.426-9.884,9.884c0,32.427,26.381,58.807,58.808,58.807
		c32.426,0,58.807-26.38,58.807-58.807C297,143.042,292.574,138.616,287.116,138.616z"/>
</g>
<g>
</g>
<g>
</g>
<g>
</g>
<g>
</g>
<g>
</g>
<g>
</g>
<g>
</g>
<g>
</g>
<g>
</g>
<g>
</g>
<g>
</g>
<g>
</g>
<g>
</g>
<g>
</g>
<g>
</g>
</svg>
