<?xml version="1.0" encoding="iso-8859-1"?>
<!-- Generator: Adobe Illustrator 19.0.0, SVG Export Plug-In . SVG Version: 6.00 Build 0)  -->
<svg version="1.1" id="Layer_1" xmlns="http://www.w3.org/2000/svg" xmlns:xlink="http://www.w3.org/1999/xlink" x="0px" y="0px"
	 viewBox="0 0 300.432 300.432" style="enable-background:new 0 0 300.432 300.432;" xml:space="preserve">
<g>
	<g>
		<g>
			<path d="M224.482,50.155H75.95c-4.059,0-7.35,3.291-7.35,7.35v95.89c0,4.059,3.291,7.35,7.35,7.35h148.532
				c4.06,0,7.35-3.291,7.35-7.35v-95.89C231.832,53.446,228.542,50.155,224.482,50.155z M217.132,146.045H83.3v-81.19h133.832
				V146.045z"/>
			<path d="M298.648,223.445l-37.416-43.383V37.905c0-9.457-7.694-17.15-17.15-17.15H56.35c-9.457,0-17.15,7.693-17.15,17.15
				v142.158L1.784,223.445c-1.126,1.308-1.782,3.057-1.784,4.792c0,0.003,0,0.006,0,0.01v44.079c0,4.059,3.291,7.35,7.35,7.35
				h285.732c4.059,0,7.35-3.291,7.35-7.35v-44.08C300.432,226.506,299.789,224.769,298.648,223.445z M53.9,37.905
				c0-1.351,1.099-2.45,2.45-2.45h187.732c1.351,0,2.45,1.099,2.45,2.45v137.54H53.9V37.905z M49.916,190.145h200.598l26.522,30.751
				H23.395L49.916,190.145z M285.732,264.976H14.7v-29.38h271.032V264.976z"/>
			<path d="M158.766,198.17H84.499c-4.059,0-7.35,3.291-7.35,7.35c0,4.059,3.291,7.35,7.35,7.35h74.266c4.06,0,7.35-3.291,7.35-7.35
				C166.116,201.461,162.826,198.17,158.766,198.17z"/>
			<path d="M215.932,198.17h-22.214c-4.06,0-7.35,3.291-7.35,7.35c0,4.059,3.29,7.35,7.35,7.35h22.214c4.06,0,7.35-3.291,7.35-7.35
				C223.282,201.461,219.992,198.17,215.932,198.17z"/>
		</g>
	</g>
</g>
<g>
</g>
<g>
</g>
<g>
</g>
<g>
</g>
<g>
</g>
<g>
</g>
<g>
</g>
<g>
</g>
<g>
</g>
<g>
</g>
<g>
</g>
<g>
</g>
<g>
</g>
<g>
</g>
<g>
</g>
</svg>
