<?xml version="1.0" encoding="UTF-8" standalone="no"?>
<!-- Generator: Adobe Illustrator 16.0.0, SVG Export Plug-In . SVG Version: 6.00 Build 0)  -->

<svg
   xmlns:dc="http://purl.org/dc/elements/1.1/"
   xmlns:cc="http://creativecommons.org/ns#"
   xmlns:rdf="http://www.w3.org/1999/02/22-rdf-syntax-ns#"
   xmlns:svg="http://www.w3.org/2000/svg"
   xmlns="http://www.w3.org/2000/svg"
   xmlns:sodipodi="http://sodipodi.sourceforge.net/DTD/sodipodi-0.dtd"
   xmlns:inkscape="http://www.inkscape.org/namespaces/inkscape"
   version="1.1"
   id="Capa_1"
   x="0px"
   y="0px"
   width="160.979px"
   height="160.979px"
   viewBox="0 0 160.979 160.979"
   style="enable-background:new 0 0 160.979 160.979;"
   xml:space="preserve"
   inkscape:version="0.91 r13725"
   sodipodi:docname="people.svg"><metadata
     id="metadata41"><rdf:RDF><cc:Work
         rdf:about=""><dc:format>image/svg+xml</dc:format><dc:type
           rdf:resource="http://purl.org/dc/dcmitype/StillImage" /></cc:Work></rdf:RDF></metadata><defs
     id="defs39" /><sodipodi:namedview
     pagecolor="#ffffff"
     bordercolor="#666666"
     borderopacity="1"
     objecttolerance="10"
     gridtolerance="10"
     guidetolerance="10"
     inkscape:pageopacity="0"
     inkscape:pageshadow="2"
     inkscape:window-width="1920"
     inkscape:window-height="1138"
     id="namedview37"
     showgrid="false"
     inkscape:zoom="5.11875"
     inkscape:cx="41.403148"
     inkscape:cy="87.17262"
     inkscape:window-x="-8"
     inkscape:window-y="-8"
     inkscape:window-maximized="1"
     inkscape:current-layer="Capa_1" /><path
     inkscape:connector-curvature="0"
     id="path5"
     d="M 160.979,58.223 127.824,50.676 119.707,97.1 C 111.9,91.753 102.919,87.443 93.152,84.964 c 13.523,-9.098 22.834,-27.03 22.834,-43.178 0,-22.789 -18.475,-41.272 -41.26,-41.272 -22.792,0 -41.272,18.478 -41.272,41.272 0,16.148 9.311,34.081 22.834,43.178 C 23.958,93.166 0,121.23 0,142.025 c 0,24.588 149.44,24.588 149.44,0 0,-6.321 -2.234,-13.312 -6.224,-20.216 l 17.763,-63.586 z m -28.138,-0.015 20.375,4.64 -16.033,57.403 -14.607,-3.325 10.265,-58.718 z m -58.114,102.249 -20.935,-20.935 17.622,-42.6 -0.18,0 -6.848,-7.849 c 3.319,1.193 6.766,1.899 10.346,1.899 3.571,0 7.015,-0.706 10.321,-1.894 l -6.845,7.837 -0.173,0 17.625,42.6 -20.933,20.942 z m 62.444,-21.215 c -1.517,6.662 -7.131,10.644 -14.054,9.067 -6.911,-1.571 -10.389,-7.618 -8.872,-14.285 1.547,-6.79 7.393,-10.571 14.176,-9.037 6.795,1.547 10.169,7.436 8.75,14.255 z" /><g
     id="g7" /><g
     id="g9" /><g
     id="g11" /><g
     id="g13" /><g
     id="g15" /><g
     id="g17" /><g
     id="g19" /><g
     id="g21" /><g
     id="g23" /><g
     id="g25" /><g
     id="g27" /><g
     id="g29" /><g
     id="g31" /><g
     id="g33" /><g
     id="g35" /><path
     style="opacity:1;fill:#000000;fill-opacity:1;stroke:none;stroke-width:2;stroke-linecap:round;stroke-linejoin:round;stroke-miterlimit:4;stroke-dasharray:none;stroke-dashoffset:0;stroke-opacity:1"
     d="m 100.416,87.423828 0,62.615232 42.97851,0 0,-20.72656 c 0,-1.44208 0.7853,-2.68203 1.94531,-3.35352 A 76.976303,71.261208 0 0 0 100.416,87.423828 Z"
     id="path4170"
     inkscape:connector-curvature="0" /><path
     style="opacity:1;fill:#ffffff;fill-opacity:1;stroke:none;stroke-width:2;stroke-linecap:round;stroke-linejoin:round;stroke-miterlimit:4;stroke-dasharray:none;stroke-dashoffset:0;stroke-opacity:1"
     d="m 118.10635,43.418321 0,52.240234 a 76.976303,71.261208 0 0 1 0.58985,0.423828 79.072739,77 0 0 1 2.5,1.789063 76.976303,71.261208 0 0 1 3.50976,2.599614 79.072739,77 0 0 1 3.98828,3.5 76.976303,71.261208 0 0 1 1.27149,1.15429 79.072739,77 0 0 1 15.20508,20.34375 l 26.46484,0 0,-82.050779 -53.5293,0 z"
     id="rect4212"
     inkscape:connector-curvature="0" /></svg>